<svg width="318" height="192" viewBox="0 0 318 192" fill="none" xmlns="http://www.w3.org/2000/svg">
<g filter="url(#filter0_b_1_20)">
<path d="M107.65 182.921C110.765 183.224 113.791 182.976 116.883 183.577C119.694 182.667 125.513 185.489 128.294 185.989C134.33 187.074 140.678 189.346 146.853 189.474C156.307 189.669 165.774 189.277 175.228 189.504C185.244 189.744 195.211 190.521 205.198 189.444C207.288 189.219 209.661 188.208 211.64 187.568C215.602 186.285 219.65 185.405 223.603 184.113C229.451 182.201 235.727 181.359 241.702 179.824C247.901 178.23 254.059 176.002 260.107 173.926C270.854 170.24 283.291 166.426 292.5 159.719C300.455 153.927 310.031 147.501 314.802 138.841C317.617 133.73 314.919 132.377 312.378 128.059C308.629 121.689 302.221 116.89 298.329 110.635C292.486 101.246 286.302 92.1702 281.887 82.0128C277.645 72.2532 273.45 62.8845 267.347 54.0754C262.504 47.0855 254.177 43.5821 246.978 39.362C237.632 33.8833 228.032 29.0959 217.713 25.4529C207.559 21.8675 197.193 18.9559 187.038 15.3561C175.055 11.1084 164.272 5.7612 151.577 3.44243C140.278 1.37857 126.195 1.0476 115.441 5.70602C104.705 10.3568 94.0127 15.1635 82.6797 18.4238C71.4578 21.6522 59.9192 22.3793 48.5072 24.6189C37.6485 26.75 25.8222 26.6955 16.9727 33.8818C11.9833 37.9334 6.61818 43.8438 3.72089 49.5482C0.114429 56.6487 3.01108 64.93 4.85588 72.0947C5.76057 75.6083 8.21543 79.0539 9.91735 82.2511C11.9635 86.095 14.8091 90.1348 17.4329 93.6286C21.1204 98.5388 25.9068 103.021 30.5006 107.151C33.4505 109.803 37.4547 111.662 40.7156 114.001C46.9881 118.499 51.839 124.682 57.3111 129.995C63.6407 136.141 68.3892 143.315 71.6365 151.291C75.3923 160.514 74.9064 172.898 85.7166 177.918C92.5399 181.086 100.143 182.192 107.65 182.921Z" fill="#7B4CD8"/>
<path d="M120.779 184.113C119.398 184.113 118.232 183.838 116.883 183.577M116.883 183.577C113.791 182.976 110.765 183.224 107.65 182.921C100.143 182.192 92.5399 181.086 85.7166 177.918C74.9064 172.898 75.3923 160.514 71.6365 151.291C68.3892 143.315 63.6407 136.141 57.3111 129.995C51.839 124.682 46.9881 118.499 40.7156 114.001C37.4547 111.662 33.4505 109.803 30.5006 107.151C25.9068 103.021 21.1204 98.5388 17.4329 93.6286C14.8091 90.1348 11.9635 86.095 9.91735 82.2511C8.21543 79.0539 5.76057 75.6083 4.85588 72.0947C3.01108 64.93 0.114429 56.6487 3.72089 49.5482C6.61818 43.8438 11.9833 37.9334 16.9727 33.8818C25.8222 26.6955 37.6485 26.75 48.5072 24.6189C59.9192 22.3793 71.4578 21.6522 82.6797 18.4238C94.0127 15.1635 104.705 10.3568 115.441 5.70602C126.195 1.0476 140.278 1.37857 151.577 3.44243C164.272 5.7612 175.055 11.1084 187.038 15.3561C197.193 18.9559 207.559 21.8675 217.713 25.4529C228.032 29.0959 237.632 33.8833 246.978 39.362C254.177 43.5821 262.504 47.0855 267.347 54.0754C273.45 62.8845 277.645 72.2532 281.887 82.0128C286.302 92.1702 292.486 101.246 298.329 110.635C302.221 116.89 308.629 121.689 312.378 128.059C314.919 132.377 317.617 133.73 314.802 138.841C310.031 147.501 300.455 153.927 292.5 159.719C283.291 166.426 270.854 170.24 260.107 173.926C254.059 176.002 247.901 178.23 241.702 179.824C235.727 181.359 229.451 182.201 223.603 184.113C219.65 185.405 215.602 186.285 211.64 187.568C209.661 188.208 207.288 189.219 205.198 189.444C195.211 190.521 185.244 189.744 175.228 189.504C165.774 189.277 156.307 189.669 146.853 189.474C140.678 189.346 134.33 187.074 128.294 185.989C125.513 185.489 119.694 182.667 116.883 183.577Z" stroke="#7B4CD8" stroke-width="3" stroke-linecap="round"/>
</g>
<defs>
<filter id="filter0_b_1_20" x="-3.49994" y="-3.5" width="325" height="199" filterUnits="userSpaceOnUse" color-interpolation-filters="sRGB">
<feFlood flood-opacity="0" result="BackgroundImageFix"/>
<feGaussianBlur in="BackgroundImageFix" stdDeviation="2"/>
<feComposite in2="SourceAlpha" operator="in" result="effect1_backgroundBlur_1_20"/>
<feBlend mode="normal" in="SourceGraphic" in2="effect1_backgroundBlur_1_20" result="shape"/>
</filter>
</defs>
</svg>
